<svg xmlns="http://www.w3.org/2000/svg" version="1.1" xlink="http://www.w3.org/1999/xlink" xmlns:svgjs="http://svgjs.com/svgjs" width="70%" height="70%" preserveAspectRatio="xMidYMid meet" viewBox="-6.662355644948548e-7 -1.393671666960472e-8 300.0000305175781 48.7358512878418" overflow="visible">
                <defs id="SvgjsDefs2594"></defs>
                <g id="SvgjsG2595" transform="scale(0.6493455350517213)" opacity="1" stroke="none" fill="#000000" stroke-width="1px">
                    <g id="SvgjsG2596" class="xU5vMr0Tr" transform="translate(-4.826816348460687, -11.605482270189102) scale(1.015530475165305)" light-content="false" non-strokable="false" fill="#197bbd" stroke="none" stroke-width="1px">
                        <path fill-rule="evenodd" clip-rule="evenodd" d="M36.135 61.376c-1.571 2.502-5.04 4.251-9.042 4.251H13.794c-4.002 0-7.471-1.749-9.041-4.251h.585c0-.059.01-.116.031-.177l13.704-38.127a8.114 8.114 0 0 1-2.163-.371 1.308 1.308 0 0 1 .786-2.495c2.707.855 5.794-.683 9.261-2.41 5.848-2.913 12.652-6.302 21.641-1.401v-4.967h1.804v4.879c8.858-4.694 15.588-1.343 21.379 1.541 3.467 1.727 6.554 3.265 9.261 2.41a1.308 1.308 0 0 1 .787 2.493 8.05 8.05 0 0 1-1.7.343l13.785 38.352c.021.06.032.118.032.176h.889c-1.592 2.503-5.107 4.251-9.165 4.251H72.19c-4.057 0-7.573-1.748-9.166-4.251h.893c0-.058.01-.116.029-.176L77.769 22.99c-1.963-.333-3.938-1.218-6.021-2.24-.372-.183-.749-.371-1.129-.561-4.966-2.474-10.695-5.327-17.875-2.116-.679.303-1.37.66-2.076 1.078-.085.05-.173.089-.264.119V23h1.04v36.072h1.159v16.284c3.522.456 6.588 1.742 8.7 3.537h3.667V82.5h1.031v2.834h-33.11V82.5h1.546v-3.606h3.797c2.061-1.75 5.029-3.019 8.443-3.503V59.072h.902V23H48.6v-3.727a1.308 1.308 0 0 1-.526-.174c-.575-.34-1.142-.64-1.699-.903-7.355-3.485-13.199-.576-18.25 1.941-.477.237-.947.472-1.412.698-1.778.866-3.48 1.617-5.167 1.991L35.339 61.2a.53.53 0 0 1 .03.177h.766v-.001zm56.735.246L79.454 24.295v37.327H92.87zm-14.462 0V24.295L65.027 61.522l-.036.1h13.417zM20.876 24.048v37.328h13.417L20.876 24.048zM6.413 61.376H19.83V24.048L6.449 61.276l-.036.1z" stroke="none" fill="#197bbd" stroke-width="1px"></path>
                    </g>
                    <g id="SvgjsG2597" class="text" transform="translate(287.5136314258415, 53.65014017260102) scale(1)" light-content="false" fill="#197bbd" stroke="none" stroke-width="1px">
                        <path d="M-171.58 -2.24C-171.58 -1.62 -171.36 -1.09 -170.92 -0.65C-170.47 -0.22 -169.94 0 -169.32 0L-164.85 0C-164.23 0 -163.7 -0.22 -163.26 -0.65C-162.83 -1.09 -162.61 -1.62 -162.61 -2.24L-162.61 -7.6L-151.2 -7.6C-141.6 -7.6 -136.79 -12.02 -136.79 -20.87C-136.79 -29.72 -141.6 -34.15 -151.2 -34.15L-169.37 -34.15C-169.99 -34.15 -170.51 -33.93 -170.94 -33.48C-171.37 -33.04 -171.58 -32.5 -171.58 -31.89ZM-162.61 -14.34L-162.61 -27.41L-153.92 -27.41C-151.25 -27.41 -149.22 -26.96 -147.84 -26.06C-146.46 -25.17 -145.77 -23.44 -145.77 -20.87C-145.77 -18.31 -146.46 -16.58 -147.84 -15.68C-149.22 -14.78 -151.25 -14.34 -153.92 -14.34Z M-134.36 -13.06C-134.36 -8.61 -133.13 -5.24 -130.65 -2.95C-128.17 -0.67 -124.61 0.48 -119.97 0.48C-115.33 0.48 -111.77 -0.67 -109.29 -2.95C-106.81 -5.24 -105.58 -8.61 -105.58 -13.06C-105.58 -17.51 -106.81 -20.88 -109.29 -23.16C-111.77 -25.44 -115.33 -26.58 -119.97 -26.58C-124.61 -26.58 -128.17 -25.44 -130.65 -23.16C-133.13 -20.88 -134.36 -17.51 -134.36 -13.06ZM-126.1 -13.07C-126.1 -15.9 -125.61 -17.96 -124.63 -19.24C-123.64 -20.53 -122.09 -21.17 -119.97 -21.17C-117.85 -21.17 -116.29 -20.53 -115.3 -19.24C-114.31 -17.96 -113.81 -15.9 -113.81 -13.07C-113.81 -10.25 -114.31 -8.18 -115.3 -6.88C-116.29 -5.58 -117.85 -4.93 -119.97 -4.93C-122.09 -4.93 -123.64 -5.58 -124.63 -6.88C-125.61 -8.18 -126.1 -10.25 -126.1 -13.07Z M-102.67 -12.67C-102.67 -3.91 -97.88 0.48 -88.31 0.48C-83.64 0.48 -80.09 -0.53 -77.64 -2.54C-75.2 -4.54 -73.98 -7.42 -73.98 -11.17C-73.98 -14.91 -75.16 -17.8 -77.54 -19.84C-79.91 -21.87 -83.1 -22.88 -87.12 -22.88C-91.14 -22.88 -94.12 -21.51 -96.07 -18.76C-96.07 -21.61 -95.4 -23.67 -94.05 -24.94C-92.7 -26.22 -90.37 -27 -87.05 -27.27L-77.05 -28.1C-76.57 -28.13 -76.16 -28.37 -75.82 -28.83C-75.48 -29.28 -75.31 -29.77 -75.31 -30.29L-75.31 -33.41C-75.31 -33.79 -75.45 -34.12 -75.74 -34.39C-75.99 -34.54 -76.29 -34.62 -76.62 -34.62L-76.86 -34.62L-89.98 -33.46C-94.6 -33.03 -97.87 -31.39 -99.79 -28.55C-101.71 -25.71 -102.67 -21.56 -102.67 -16.1ZM-92.82 -15.82C-91.77 -16.91 -90.27 -17.45 -88.32 -17.45C-86.38 -17.45 -84.87 -16.91 -83.81 -15.82C-82.75 -14.74 -82.21 -13.19 -82.21 -11.19C-82.21 -9.19 -82.75 -7.65 -83.81 -6.56C-84.87 -5.47 -86.38 -4.93 -88.32 -4.93C-90.27 -4.93 -91.77 -5.47 -92.82 -6.56C-93.88 -7.65 -94.41 -9.19 -94.41 -11.19C-94.41 -13.19 -93.88 -14.74 -92.82 -15.82Z M-71.31 -13.06C-71.31 -8.61 -70.07 -5.24 -67.59 -2.95C-65.12 -0.67 -61.56 0.48 -56.91 0.48C-52.27 0.48 -48.71 -0.67 -46.23 -2.95C-43.76 -5.24 -42.52 -8.61 -42.52 -13.06C-42.52 -17.51 -43.76 -20.88 -46.23 -23.16C-48.71 -25.44 -52.27 -26.58 -56.91 -26.58C-61.56 -26.58 -65.12 -25.44 -67.59 -23.16C-70.07 -20.88 -71.31 -17.51 -71.31 -13.06ZM-63.04 -13.07C-63.04 -15.9 -62.55 -17.96 -61.57 -19.24C-60.58 -20.53 -59.03 -21.17 -56.91 -21.17C-54.79 -21.17 -53.24 -20.53 -52.25 -19.24C-51.25 -17.96 -50.76 -15.9 -50.76 -13.07C-50.76 -10.25 -51.25 -8.18 -52.25 -6.88C-53.24 -5.58 -54.79 -4.93 -56.91 -4.93C-59.03 -4.93 -60.58 -5.58 -61.57 -6.88C-62.55 -8.18 -63.04 -10.25 -63.04 -13.07Z M-41.07 -21.79C-41.07 -21.38 -40.93 -21.03 -40.65 -20.75C-40.37 -20.48 -40.02 -20.34 -39.59 -20.34L-31.99 -20.34L-31.99 -1.45C-31.99 -1.04 -31.85 -0.69 -31.58 -0.42C-31.3 -0.14 -30.95 0 -30.52 0L-25.21 0C-24.78 0 -24.42 -0.14 -24.15 -0.42C-23.87 -0.69 -23.73 -1.04 -23.73 -1.45L-23.73 -20.34L-16.13 -20.34C-15.7 -20.34 -15.36 -20.48 -15.09 -20.75C-14.82 -21.03 -14.68 -21.38 -14.68 -21.79L-14.68 -24.62C-14.68 -25.05 -14.82 -25.4 -15.09 -25.68C-15.36 -25.96 -15.7 -26.1 -16.13 -26.1L-39.59 -26.1C-40.02 -26.1 -40.37 -25.96 -40.65 -25.68C-40.93 -25.4 -41.07 -25.05 -41.07 -24.62Z M-13.2 -13.55C-13.2 -13.12 -13.07 -12.77 -12.8 -12.5C-12.53 -12.23 -12.18 -12.1 -11.75 -12.1L6.2 -12.1C6.63 -12.1 6.99 -12.23 7.26 -12.5C7.54 -12.77 7.68 -13.12 7.68 -13.55L7.68 -16.38C7.68 -16.81 7.54 -17.17 7.26 -17.44C6.99 -17.72 6.63 -17.86 6.2 -17.86L-11.75 -17.86C-12.16 -17.86 -12.51 -17.72 -12.79 -17.44C-13.07 -17.17 -13.2 -16.81 -13.2 -16.38Z M11.56 -1.45C11.56 -1.04 11.7 -0.69 11.98 -0.42C12.26 -0.14 12.6 0 13.01 0L18.35 0C18.76 0 19.11 -0.14 19.38 -0.42C19.66 -0.69 19.8 -1.04 19.8 -1.45L19.8 -10.33L23.25 -10.33C23.65 -6.83 25.05 -4.15 27.46 -2.3C29.86 -0.45 33.1 0.48 37.18 0.48C41.26 0.48 44.52 -0.67 46.96 -2.98C49.4 -5.28 50.61 -8.63 50.61 -13.04C50.61 -17.44 49.4 -20.8 46.96 -23.11C44.52 -25.42 41.28 -26.58 37.23 -26.58C33.18 -26.58 29.96 -25.68 27.55 -23.9C25.15 -22.11 23.73 -19.51 23.3 -16.1L19.8 -16.1L19.8 -24.62C19.8 -25.05 19.66 -25.4 19.38 -25.68C19.11 -25.96 18.76 -26.1 18.35 -26.1L13.01 -26.1C12.6 -26.1 12.26 -25.96 11.98 -25.68C11.7 -25.4 11.56 -25.05 11.56 -24.62ZM36.86 -21.17C40.54 -21.17 42.38 -18.46 42.38 -13.05C42.38 -7.64 40.54 -4.93 36.86 -4.93C33.19 -4.93 31.35 -7.64 31.35 -13.05C31.35 -18.46 33.19 -21.17 36.86 -21.17Z M55.02 6.57C55.02 7 55.16 7.35 55.44 7.63C55.71 7.91 56.06 8.05 56.47 8.05L61.81 8.05C62.22 8.05 62.56 7.91 62.84 7.63C63.12 7.35 63.26 7 63.26 6.57L63.26 -0.74C65.83 0.07 68.13 0.48 70.14 0.48C74.05 0.48 77.15 -0.68 79.45 -3C81.75 -5.32 82.91 -8.66 82.91 -13.01C82.91 -17.37 81.79 -20.72 79.57 -23.06C77.35 -25.4 74.58 -26.58 71.26 -26.58C67.94 -26.58 65.03 -25.69 62.52 -23.91L62.52 -24.62C62.52 -25.05 62.38 -25.4 62.1 -25.68C61.83 -25.96 61.48 -26.1 61.07 -26.1L56.47 -26.1C56.06 -26.1 55.71 -25.96 55.44 -25.68C55.16 -25.4 55.02 -25.05 55.02 -24.62ZM63.26 -6.24L63.26 -18.67C65.53 -20.1 67.53 -20.81 69.25 -20.81C70.97 -20.81 72.26 -20.2 73.13 -18.97C73.99 -17.74 74.43 -15.76 74.43 -13.05C74.43 -10.33 73.97 -8.36 73.06 -7.12C72.15 -5.88 70.6 -5.26 68.43 -5.26C67.03 -5.26 65.31 -5.59 63.26 -6.24Z M87.31 -1.45C87.31 -1.02 87.45 -0.67 87.72 -0.4C87.99 -0.13 88.33 0 88.76 0L95.45 0C95.95 0 96.45 -0.17 96.98 -0.51C97.5 -0.85 97.89 -1.25 98.15 -1.71L106.53 -17.07L106.53 -1.45C106.53 -1.04 106.66 -0.69 106.93 -0.42C107.2 -0.14 107.55 0 107.98 0L112.96 0C113.39 0 113.74 -0.13 114.02 -0.4C114.29 -0.67 114.43 -1.02 114.43 -1.45L114.43 -24.62C114.43 -25.05 114.29 -25.4 114.02 -25.68C113.74 -25.96 113.39 -26.1 112.96 -26.1L106.29 -26.1C105.8 -26.1 105.29 -25.94 104.77 -25.61C104.24 -25.29 103.85 -24.88 103.6 -24.38L95.22 -8.98L95.22 -24.62C95.22 -25.05 95.08 -25.4 94.8 -25.68C94.52 -25.96 94.17 -26.1 93.74 -26.1L88.76 -26.1C88.35 -26.1 88 -25.96 87.73 -25.68C87.45 -25.4 87.31 -25.05 87.31 -24.62Z M122.51 -2.95C124.98 -0.67 128.45 0.48 132.9 0.48C137.35 0.48 140.76 -0.22 143.12 -1.62C145.47 -3.02 146.65 -5.08 146.65 -7.81C146.65 -8.22 146.51 -8.57 146.24 -8.85C145.96 -9.12 145.6 -9.26 145.18 -9.26L141.63 -9.26C140.55 -9.26 139.64 -8.68 138.89 -7.5C137.95 -6.01 136.27 -5.26 133.85 -5.26C131.43 -5.26 129.73 -5.87 128.76 -7.1C127.78 -8.32 127.29 -10.3 127.29 -13.05C127.29 -15.8 127.76 -17.78 128.71 -18.99C129.65 -20.21 131.31 -20.81 133.69 -20.81C136.06 -20.81 137.71 -20.07 138.65 -18.57C139.4 -17.42 140.31 -16.84 141.39 -16.84L144.94 -16.84C145.37 -16.84 145.72 -16.97 146 -17.24C146.28 -17.51 146.41 -17.86 146.41 -18.29C146.41 -21.02 145.24 -23.08 142.88 -24.48C140.52 -25.88 137.15 -26.58 132.76 -26.58C128.37 -26.58 124.94 -25.43 122.48 -23.13C120.02 -20.84 118.79 -17.47 118.79 -13.04C118.79 -8.6 120.03 -5.24 122.51 -2.95Z M148.11 -21.79C148.11 -21.38 148.24 -21.03 148.52 -20.75C148.8 -20.48 149.15 -20.34 149.58 -20.34L157.18 -20.34L157.18 -1.45C157.18 -1.04 157.32 -0.69 157.59 -0.42C157.87 -0.14 158.23 0 158.65 0L163.96 0C164.39 0 164.75 -0.14 165.02 -0.42C165.3 -0.69 165.44 -1.04 165.44 -1.45L165.44 -20.34L173.04 -20.34C173.47 -20.34 173.82 -20.48 174.09 -20.75C174.35 -21.03 174.49 -21.38 174.49 -21.79L174.49 -24.62C174.49 -25.05 174.35 -25.4 174.09 -25.68C173.82 -25.96 173.47 -26.1 173.04 -26.1L149.58 -26.1C149.15 -26.1 148.8 -25.96 148.52 -25.68C148.24 -25.4 148.11 -25.05 148.11 -24.62Z" stroke="none" fill="#197bbd" stroke-width="1px"></path>
                    </g>
                </g>
            </svg>